<?xml version="1.0" encoding="UTF-8" standalone="no"?>
<svg
   version="1.1"
   width="414.3504"
   height="396.9826"
   id="svg2"
   sodipodi:docname="kete.svg"
   inkscape:version="1.4.2 (ebf0e940, 2025-05-08)"
   xmlns:inkscape="http://www.inkscape.org/namespaces/inkscape"
   xmlns:sodipodi="http://sodipodi.sourceforge.net/DTD/sodipodi-0.dtd"
   xmlns="http://www.w3.org/2000/svg"
   xmlns:svg="http://www.w3.org/2000/svg">
  <defs
     id="defs2">
    <inkscape:path-effect
       effect="fillet_chamfer"
       id="path-effect53"
       is_visible="true"
       lpeversion="1"
       nodesatellites_param="F,0,0,1,0,0,0,1 @ F,0,0,1,0,0,0,1 @ F,0,0,1,0,0,0,1 @ F,0,0,1,0,0,0,1 @ F,0,0,1,0,0,0,1 @ F,0,0,1,0,0,0,1 @ F,0,0,1,0,0,0,1 @ F,0,0,1,0,0,0,1 @ F,0,0,1,0,0,0,1 @ F,0,0,1,0,0,0,1 @ F,0,0,1,0,0,0,1 @ F,0,0,1,0,0,0,1 @ F,0,0,1,0,0,0,1 @ F,0,0,1,0,0,0,1 @ F,0,0,1,0,0,0,1 @ F,0,0,1,0,0,0,1 @ F,0,0,1,0,0,0,1 @ F,0,0,1,0,0,0,1 @ F,0,0,1,0,0,0,1 @ F,0,0,1,0,0,0,1 @ F,0,0,1,0,0,0,1 @ F,0,0,1,0,0,0,1 @ F,0,0,1,0,0,0,1 @ F,0,0,1,0,0,0,1 @ F,0,0,1,0,0,0,1 @ F,0,0,1,0,0,0,1 @ F,0,0,1,0,0,0,1 @ F,0,0,1,0,0,0,1 @ F,0,0,1,0,0,0,1 @ F,0,0,1,0,0,0,1 @ F,0,0,1,0,0,0,1 @ F,0,0,1,0,0,0,1 @ F,0,0,1,0,0,0,1 @ F,0,0,1,0,0,0,1 @ F,0,0,1,0,0,0,1 @ F,0,0,1,0,0,0,1 @ F,0,0,1,0,3.6862221,0,1 @ F,0,0,1,0,0,0,1 @ F,0,0,1,0,0,0,1 @ F,0,0,1,0,4.3770535,0,1 @ F,0,0,1,0,0,0,1 @ F,0,1,1,0,4.3770535,0,1 @ F,0,0,1,0,0,0,1 @ F,0,0,1,0,0,0,1 @ F,0,0,1,0,0,0,1 @ F,0,0,1,0,0,0,1 @ F,0,0,1,0,0,0,1"
       radius="0"
       unit="px"
       method="auto"
       mode="F"
       chamfer_steps="1"
       flexible="false"
       use_knot_distance="true"
       apply_no_radius="true"
       apply_with_radius="true"
       only_selected="false"
       hide_knots="false" />
  </defs>
  <sodipodi:namedview
     id="namedview2"
     pagecolor="#ffffff"
     bordercolor="#000000"
     borderopacity="0.25"
     inkscape:showpageshadow="2"
     inkscape:pageopacity="0.0"
     inkscape:pagecheckerboard="0"
     inkscape:deskcolor="#d1d1d1"
     inkscape:zoom="0.74524214"
     inkscape:cx="219.39178"
     inkscape:cy="218.04994"
     inkscape:window-width="1408"
     inkscape:window-height="936"
     inkscape:window-x="45"
     inkscape:window-y="44"
     inkscape:window-maximized="0"
     inkscape:current-layer="svg2" />
  <path
     id="path6"
     style="fill:#314159;fill-opacity:1"
     d="m 381.01573,-499.29553 c 48.42517,-0.91374 106.04837,16.65095 146.75814,42.89108 11.45925,-4.30113 82.12006,53.04451 110.46284,102.82625 -16.52469,51.13061 -22.37803,48.86588 -1.72193,95.98279 0,0 -21.55503,66.89532 -21.73762,67.35316 -0.18263,0.45792 -1.55002,2.07546 -3.03867,3.59458 -1.48864,1.51913 -5.16504,4.08693 -8.1697,5.70607 -4.19802,2.39498 -8.34406,4.49577 -12.38305,6.87343 -2.24184,1.35385 -5.52825,3.37427 -8.3081,5.98548 -1.46544,1.29055 -1.56225,0.58715 -3.95708,2.57535 -2.57161,2.15628 -4.77736,5.31339 -8.45713,7.34822 -2.27185,1.1847 -4.00885,2.17914 -6.34695,4.01121 -2.28681,2.08227 -2.89495,3.21737 -4.94153,5.20324 -5.33721,4.05094 -5.44742,4.2565 -9.66369,7.07736 -2.73896,1.01607 -5.89658,3.68002 -8.01625,4.64969 -2.84255,0.73855 -3.50662,1.11342 -5.60389,1.70446 -1.15373,0.34582 -2.90334,0.90236 -6.05135,1.00106 -3.14797,0.0986 -7.20036,0.23779 -9.00528,0.30939 -4.89605,0.18056 -8.09279,2.64208 -12.76918,3.97003 -3.01826,0.95044 -13.60271,1.72138 -18.58446,4.51994 -3.70319,2.38163 -8.28029,4.9469 -10.17132,5.7006 -1.89109,0.7538 -4.90665,1.52982 -6.70125,1.72448 -2.46238,0.26725 -6.95688,-1.04753 -18.31814,-5.3587 -11.23562,-4.26355 -16.27205,-5.74341 -19.85185,-5.83311 -2.63821,-0.0661 -6.64714,0.26789 -8.90873,0.74215 -2.26161,0.47436 -9.07436,2.5624 -15.13945,4.64017 -6.06506,2.07767 -13.61955,4.01329 -16.78774,4.30136 -5.38272,0.48945 -6.38893,0.24169 -15.34881,-3.77842 -7.46619,-3.35 -10.80995,-5.42176 -15.10729,-9.36048 -4.42925,-4.05958 -8.61884,-6.61217 -21.22029,-12.92895 -8.63574,-4.329 -20.58653,-10.80626 -26.55723,-14.3941 -5.97073,-3.58774 -10.97759,-18.56789 -18.68562,-23.71406 -7.70799,-5.14627 -14.62888,-13.0131 -20.0427,-17.2792 -5.41383,-4.26611 -11.29394,-8.97828 -13.06693,-10.47149 -1.77299,-1.49322 -4.7445,-4.09646 -7.81395,-6.79305 -3.06949,-2.69649 -2.54867,-9.72452 -7.40976,-14.60992 -4.03087,-4.05104 -6.98053,-12.20836 -9.72439,-18.07996 -0.8616,-1.84374 -2.37468,-4.78897 -2.91853,-6.74937 -0.96315,-3.47179 -0.237,-4.48983 -2.67192,-9.52502 -5.0073,-6.17922 0.41861,-23.95838 -1.09702,-32.45884 0.46055,-7.24282 2.76611,-14.3339 1.25873,-20.53999 -0.56819,-2.33931 -2.70418,-5.75917 -3.14591,-8.12244 -1.32395,-7.08313 1.7688,-16.59778 0.92499,-23.50471 -1.59619,-6.91195 6.82967,-19.2491 8.29449,-29.44659 0.34284,-2.38675 -0.087,-6.31251 -0.21095,-8.72644 -0.70697,-13.76761 3.87413,-13.66826 12.89287,-35.97739 5.84815,-14.46622 -0.4578,-24.93755 23.67186,-32.89188 9.24333,-3.04706 7.00269,-11.22275 13.67202,-19.29652 8.45879,-10.24007 11.63062,-15.39456 22.29349,-12.47667 10.66288,2.91789 22.09292,-12.02678 33.62038,-10.46915 11.52746,1.55764 23.47253,2.32762 35.80583,2.0949 z"
     sodipodi:nodetypes="ssssscssssssssssscssssssssscccsccccccccccsssssss"
     inkscape:path-effect="#path-effect53"
     inkscape:original-d="m 381.01573,-499.29553 c 48.42517,-0.91374 106.04837,16.65095 146.75814,42.89108 11.45925,-4.30113 82.12006,53.04451 110.46284,102.82625 -16.52469,51.13061 -22.37803,48.86588 -1.72193,95.98279 0,0 -21.55503,66.89532 -21.73762,67.35316 -0.18263,0.45792 -1.55002,2.07546 -3.03867,3.59458 -1.48864,1.51913 -5.16504,4.08693 -8.1697,5.70607 -4.19802,2.39498 -8.34406,4.49577 -12.38305,6.87343 -2.24184,1.35385 -5.52825,3.37427 -8.3081,5.98548 -1.46544,1.29055 -1.56225,0.58715 -3.95708,2.57535 -2.57161,2.15628 -4.77736,5.31339 -8.45713,7.34822 -2.27185,1.1847 -4.00885,2.17914 -6.34695,4.01121 -2.28681,2.08227 -2.89495,3.21737 -4.94153,5.20324 -5.33721,4.05094 -5.44742,4.2565 -9.66369,7.07736 -2.73896,1.01607 -5.89658,3.68002 -8.01625,4.64969 -2.84255,0.73855 -3.50662,1.11342 -5.60389,1.70446 -1.15373,0.34582 -2.90334,0.90236 -6.05135,1.00106 -3.14797,0.0986 -7.20036,0.23779 -9.00528,0.30939 -4.89605,0.18056 -8.09279,2.64208 -12.76918,3.97003 -3.01826,0.95044 -13.60271,1.72138 -18.58446,4.51994 -3.70319,2.38163 -8.28029,4.9469 -10.17132,5.7006 -1.89109,0.7538 -4.90665,1.52982 -6.70125,1.72448 -2.46238,0.26725 -6.95688,-1.04753 -18.31814,-5.3587 -11.23562,-4.26355 -16.27205,-5.74341 -19.85185,-5.83311 -2.63821,-0.0661 -6.64714,0.26789 -8.90873,0.74215 -2.26161,0.47436 -9.07436,2.5624 -15.13945,4.64017 -6.06506,2.07767 -13.61955,4.01329 -16.78774,4.30136 -5.38272,0.48945 -6.38893,0.24169 -15.34881,-3.77842 -7.46619,-3.35 -10.80995,-5.42176 -15.10729,-9.36048 -4.42925,-4.05958 -8.61884,-6.61217 -21.22029,-12.92895 -8.63574,-4.329 -20.58653,-10.80626 -26.55723,-14.3941 -5.97073,-3.58774 -10.97759,-18.56789 -18.68562,-23.71406 -7.70799,-5.14627 -14.62888,-13.0131 -20.0427,-17.2792 -5.41383,-4.26611 -11.29394,-8.97828 -13.06693,-10.47149 -1.77299,-1.49322 -4.7445,-4.09646 -7.81395,-6.79305 -3.06949,-2.69649 -2.54867,-9.72452 -7.40976,-14.60992 -4.86108,-4.88541 -8.14971,-15.74277 -11.40126,-21.36123 -2.82576,-6.68293 -0.82247,-6.601 -3.91358,-12.99312 -5.0073,-6.17922 0.41861,-23.95838 -1.09702,-32.45884 0.56383,-8.86697 3.89289,-17.50652 -0.39433,-24.57323 -4.28721,-7.06671 0.45292,-19.23843 -0.56786,-27.59391 -1.8325,-7.93522 9.54411,-23.02088 8.43226,-33.81037 -1.8914,-18.35426 2.66282,-15.89719 12.54415,-40.34005 5.84815,-14.46622 -0.4578,-24.93755 23.67186,-32.89188 9.24333,-3.04706 7.00269,-11.22275 13.67202,-19.29652 8.45879,-10.24007 11.63062,-15.39456 22.29349,-12.47667 10.66288,2.91789 22.09292,-12.02678 33.62038,-10.46915 11.52746,1.55764 23.47253,2.32762 35.80583,2.0949 z"
     transform="translate(-229.71639,515.2372)" />
  <path
     style="display:inline;fill:#ffffff;fill-opacity:1;stroke-width:0.55095"
     d="m 171.71339,220.20424 c 11.54936,-1.86957 18.39337,-10.56908 16.86259,-21.43423 -2.19603,-15.58745 -26.44253,-21.18623 -35.36026,-8.16515 -9.64881,14.08861 1.73967,32.31215 18.49767,29.59938 z m -11.59871,-14.96841 c -2.19807,-7.60182 1.25809,-14.98582 10.35075,-11.96298 9.58191,3.18556 10.56626,13.2849 1.60485,16.46541 -5.63148,1.99878 -10.49645,0.5439 -11.9556,-4.50243 z"
     id="path70" />
  <path
     style="display:inline;fill:#ffffff;fill-opacity:1;stroke-width:0.55095"
     d="m 265.46536,253.66507 c 39.32153,4.8457 53.76541,-45.44012 17.23651,-60.00831 -25.63491,-10.22353 -51.28499,15.65441 -40.4666,40.82607 4.35642,10.13622 13.92224,18.03524 23.23009,19.18224 z m -8.22529,-17.28014 c -8.42127,-8.77312 -7.24264,-24.26076 2.28046,-29.96548 11.30303,-6.77091 24.66352,-1.96515 29.46811,10.59966 7.38548,19.31415 -17.328,34.38876 -31.74857,19.36582 z"
     id="path69" />
  <path
     style="display:inline;fill:#ffffff;fill-opacity:1;stroke-width:0.55095"
     d="m 387.29776,324.216 c 1.12171,-0.83939 1.11872,-0.75446 1.76546,-1.44791 0.94177,-0.878 0.88719,-0.8553 2.48976,-2.60416 2.8703,-2.57836 4.20889,-5.33814 12.78664,-26.36222 10.56457,-25.89374 11.1467,-28.45954 9.02242,-39.76744 -0.56632,-3.01455 -1.5057,-5.41318 -1.73218,-6.84688 -1.87117,-7.68865 -5.55777,-18.56047 -7.0512,-27.09422 -1.39018,-8.46975 -0.50574,-14.93357 4.30344,-31.45097 7.99568,-27.4617 4.98006,-39.77621 -13.14992,-53.69845 -4.21819,-3.86323 -13.15998,-11.82322 -16.65275,-16.95336 -2.01319,-3.48651 -1.39529,-3.57436 -2.72534,-8.79994 -1.21615,-4.77814 -2.98083,-11.525797 -3.92154,-14.994767 -5.4151,-19.96903 -34.98036,-43.003326 -60.51404,-47.146366 -13.84747,-2.2468 -19.27803,-4.69744 -29.28799,-13.21672 -21.1347,-17.98721 -33.92346,-23.03423 -53.5833,-21.1463 -4.52041,0.43404 -7.6206,1.40638 -8.09658,1.48807 -0.79033,0.13558 -1.50732,0.31322 -2.39617,0.52728 -1.30675,0.31472 -2.09794,0.56998 -2.79044,0.65328 -4.08922,0.49177 -7.81879,0.51613 -27.73878,-7.3612497 -22.5643,-8.92248997 -29.44395,-9.69354 -50.49709,-5.65666 -1.92346,0.36881 -4.77434,0.83597 -6.33527,1.03812 -3.82753,0.49569 -10.63292,1.42017 -18.21218,2.47409 -3.44791,0.47947 -9.32728,1.25176 -13.065305,1.7163 -7.8111,0.97061 -27.22996,16.2500697 -32.34921,19.2153997 -5.11925,2.96533 17.81367,-3.51486 19.1075,2.37072 1.29383,5.88558 3.93481,10.0484 7.58537,9.44509 19.824325,-3.27616 22.961295,-0.38857 10.615215,9.77169 -31.388345,25.831226 -33.595615,51.505096 -5.925855,68.926923 25.324205,15.94519 64.060345,-5.83223 62.336475,-35.045337 -0.90242,-15.293626 11.4606,-15.148556 26.46849,0.31058 6.8882,7.09535 9.32254,7.77422 21.44046,5.97928 24.41506,-3.61648 38.58623,7.78299 41.16216,33.111147 1.84774,18.16855 6.96744,26.08973 21.30533,32.96348 6.59191,3.16024 7.8764,3.33995 21.92359,3.06696 19.10993,-0.37144 34.7047,15.40389 36.97964,37.40775 0.85658,8.28504 3.671,15.6024 8.99266,23.38041 4.1496,6.06496 5.22452,10.40997 5.30779,21.45435 0.0836,11.09177 1.62025,15.57701 6.29175,18.36486 8.60974,5.13813 11.43596,13.21736 8.43085,24.10084 -5.71037,20.68097 -3.27588,26.67181 13.63617,33.55694 5.36967,2.18563 10.52212,5.71316 11.63451,7.96451 0.4967,2.17869 0.37334,1.77831 2.43946,0.30518 z m -7.22037,-42.36286 c -6.51627,-9.7116 -0.7895,-27.60788 9.38678,-29.33398 9.58468,-1.62582 13.4809,8.69387 8.26601,21.89365 -4.68232,11.85187 -12.48593,15.14089 -17.65279,7.44033 z m -22.38736,-76.602 c -4.55581,-7.31173 -3.88714,-14.77381 1.76265,-19.67004 10.2375,-8.87201 25.2493,5.48023 19.86177,18.98914 -3.96893,9.95187 -15.6193,10.3187 -21.62442,0.6809 z M 103.5256,103.49062 C 92.181075,94.536853 91.761705,78.107683 102.62993,68.400827 c 21.02123,-18.77481 51.96435,-0.66129 41.77243,24.452826 -6.833,16.837347 -26.52747,21.962237 -40.87676,10.636967 z m 286.3379,66.06333 c -4.14516,-10.62794 -2.12618,-16.79767 4.61683,-14.10847 3.96421,1.58098 6.68924,6.00713 6.61276,10.74055 -0.15656,9.68632 -7.86372,11.99783 -11.22959,3.36792 z m -94.04262,-48.95786 c -9.41372,-7.64458 -12.42236,-15.20347 -11.46765,-28.810987 1.53027,-21.81105 41.14005,-22.122136 55.76634,-0.43788 18.78731,27.853127 -16.95593,51.453097 -44.29869,29.248867 z M 159.34566,35.276077 c -2.94881,-3.40264 -3.44743,-8.9176 -1.01673,-11.24548 5.95004,-5.69827 21.87753,-1.28469 24.49195,6.78672 3.11293,9.61069 -15.88364,13.2188 -23.47522,4.45876 z m 55.2914,16.95529 c -0.53797,-2.95749 2.3016,-4.66078 5.9969,-3.59723 3.73586,1.07531 4.66785,5.69061 1.49763,7.41674 -2.32534,1.26607 -7.00312,-1.11787 -7.49453,-3.81951 z"
     id="path68"
     sodipodi:nodetypes="cccssccsccsssssssscsssszzsscsssssssssssccccssssssssssssssssssssssssssss" />
  <path
     style="display:inline;fill:#ffffff;fill-opacity:1;stroke-width:0.55095"
     d="m 317.64012,326.71352 c 2.13791,-1.16405 2.62017,-3.83911 1.07482,-5.96179 -2.36936,-3.25433 -7.77806,0.0509 -6.50664,3.97627 0.6855,2.1163 3.38155,3.10184 5.43182,1.98552 z"
     id="path67" />
  <path
     style="display:inline;fill:#ffffff;fill-opacity:1;stroke-width:0.55095"
     d="m 195.26613,309.41799 c 14.19777,3.53493 14.79029,2.55791 24.55826,1.09339 13.02009,-1.95206 12.40706,-9.09863 2.39061,-11.7062 -14.83152,-3.86105 -20.89877,2.3319 -34.8438,-5.81707 -16.71284,-9.7664 -21.6069,-2.6444 -16.05473,5.11687 4.8777,6.81844 13.3015,8.66184 23.94966,11.31301 z"
     id="path47" />
</svg>
